<mxfile host="app.diagrams.net" modified="2024-05-24T09:05:55.795Z" agent="Mozilla/5.0 (Macintosh; Intel Mac OS X 10_15_7) AppleWebKit/537.36 (KHTML, like Gecko) Chrome/124.0.0.0 Safari/537.36" version="24.4.7" etag="PDuJQUfYqjPQZA0x5tHi" type="github">
  <diagram name="Page-1" id="LyFlvjgAYCho69N15ELn">
    <mxGraphModel>
      <root>
        <mxCell id="0" />
        <mxCell id="1" parent="0" />
      </root>
    </mxGraphModel>
  </diagram>
</mxfile>
